# xmcd CD database file
#
# Track frame offsets:
#	183
#	15993
#	32083
#	47583
#	62373
#	77450
#	93815
#	110020
#	122638
#	138118
#	151290
#	168348
#	190700
#	204708
#
# Disc length: 2919 seconds
#
# Revision: 0
# Processed by: cddbd v1.5.1PL0 Copyright (c) Steve Scherf et al.
# Submitted via: CDex 1.51
#
DISCID=a10b650e
DTITLE=Claudio Villa - 'O Sole Mio       vol.1
DYEAR=1996
DGENRE=Musica Italiana
TTITLE0=Santa Lucia
TTITLE1=Luntana
TTITLE2=Malafemmena
TTITLE3=I te vurria vasa
TTITLE4=Torna a Surriento
TTITLE5='Na sera 'e maggio
TTITLE6=Luna rossa
TTITLE7=Piccerella
TTITLE8=Passiona amara
TTITLE9='O surdato 'nnamurato
TTITLE10='O ritratto 'e nanninella
TTITLE11=Core 'Ngrato
TTITLE12=Tu si Napule
TTITLE13=Nu quarto 'e luna
EXTD=YEAR: 1996
EXTT0=
EXTT1=
EXTT2=
EXTT3=
EXTT4=
EXTT5=
EXTT6=
EXTT7=
EXTT8=
EXTT9=
EXTT10=
EXTT11=
EXTT12=
EXTT13=
PLAYORDER=
